<?xml version="1.0" encoding="utf-8"?>
<!-- Generator: Adobe Illustrator 28.0.0, SVG Export Plug-In . SVG Version: 6.00 Build 0)  -->
<svg version="1.1" xmlns="http://www.w3.org/2000/svg" xmlns:xlink="http://www.w3.org/1999/xlink" x="0px" y="0px"
	 viewBox="0 0 500 500" style="enable-background:new 0 0 500 500;" xml:space="preserve">
<style type="text/css">
	.st0{fill:#F2F2F2;}
	.st1{fill:#AD6F14;}
</style>
<g id="BACKGROUND">
	<rect y="0" class="st0" width="500" height="500"/>
</g>
<g id="OBJECTS">
	<g>
		<g>
			<path class="st1" d="M451.62,362.65H324.49c-0.21,0-0.39,0.07-0.58,0.09c-8.07-11.82-29.21-21-56.91-23.68
				c-2.59-0.25-5.11-0.42-7.58-0.55v-38.76c4.25,0.3,8.46,0.65,12.53,1.09c4.28,0.44,8.46,0.65,12.53,0.65
				c23.42,0,43.26-7.33,59.13-21.92c12.81-11.75,21.64-27.59,25.53-45.81c0.97-4.51,2.17-9.13,3.58-13.74
				c2.52-8.21,6.13-16.44,11.08-25.18c3.98-7.03,5.3-12.67,3.98-16.76c-0.12-0.39-0.25-0.76-0.44-1.13c-0.74-1.55-1.8-2.59-2.8-3.26
				c6.04-10.98,12.44-22.62,17.23-31.24c4.3-7.79,5.13-17.09,2.22-25.53c-2.87-8.37-9.2-15.17-17.34-18.64
				c-29-12.37-75.64-10.59-77.49-10.52c-86,0-121.86,31.45-123.43,32.88c-9.69,9.69-9.16,19.91-7.01,26.75
				c2.08,6.61,5.99,11.33,6.8,12.23l32.72,49.97c7.33,13.71,5.02,18.98,3.61,19.82c-0.07,0.02-0.14,0.07-0.21,0.12
				c-5.2,3.01-13.09-6.45-15.35-9.9c-12.12-20.97-24.16-37.21-35.77-48.26c-11.1-10.54-25.76-15.54-40.26-13.67
				c-17.18,2.2-28.58,13.27-33.02,32.05c-3.51,14.91-1.43,31.22,5.87,45.92c16.63,33.46,53.51,49.32,87.04,56.82
				c19.49,4.35,37.85,5.87,50.48,6.36v39.7c-30.18,1.76-54.32,11.35-63.22,24.09H48.05c-1.57,0-2.84,1.25-2.84,2.82
				c0,1.57,1.27,2.84,2.84,2.84h126.51c-0.55,1.69-0.83,3.45-0.83,5.2c0,19.77,33.78,35.26,76.91,35.26
				c26.04,0,50.04-5.83,64.19-15.61c8.32-5.73,12.72-12.53,12.72-19.66c0-1.78-0.32-3.49-0.86-5.2h124.94
				c1.57,0,2.84-1.27,2.84-2.84C454.47,363.9,453.2,362.65,451.62,362.65z M266.54,343.8c19.56,1.92,35.89,7.17,45.83,14.13
				c0.95,4.28,0.25,8.12-2.1,11.42c-1.66,2.34-4.05,4.35-6.98,6.06c-0.55-0.51-1.13-1.02-1.76-1.53
				c-11.86-9.76-22.15-11.68-34.04-13.92c-2.59-0.49-5.3-0.99-8.07-1.6v-15.08C261.73,343.41,264.11,343.57,266.54,343.8z
				 M384.77,102.67c6.91,2.94,12.26,8.69,14.71,15.79c2.45,7.17,1.76,15.05-1.9,21.67c-4.83,8.74-11.33,20.51-17.41,31.61
				c-4.07-1.46-13.39-3.31-26.87,2.77c0.12-4.14,0.81-8.56,1.48-12.86c0.76-4.72,1.48-9.18,1.46-13.32c0-3.12-0.09-6.34-0.19-9.46
				c-0.46-13.76-0.9-27.98,6.75-38.94c0.76-1.09,1.62-2.1,2.52-3.1C372.24,98.27,378.92,100.17,384.77,102.67z M189.03,124.1
				c0.07-0.09,8.81-7.86,27.89-15.65c17.76-7.26,48.17-15.91,92.33-15.93c0.37,0,28.53-1.09,54.25,3.95
				c-0.72,0.83-1.39,1.69-2.01,2.57c-7.95,11.4-7.49,25.88-7.03,39.89c0.09,3.12,0.18,6.34,0.21,9.41c0,4.02-0.69,8.42-1.46,13.07
				c-0.72,4.62-1.48,9.39-1.53,13.87c-10.73,5.2-23.96,15.45-39.17,34.52c-13.34,2.84-27.59,3.88-41.35,2.96
				c-24.23-1.66-41.32-11.35-52.26-29.64c-1.43-2.38-2.82-4.86-4.16-7.26c-3.4-6.08-6.91-12.39-11.49-17.85
				c-4.99-5.94-13.64-11.08-20.07-12.19C181.31,139.67,181.4,131.71,189.03,124.1z M222.4,207.23c-0.02-0.05-0.07-0.12-0.09-0.16
				l-32.88-50.2c-0.07-0.12-0.16-0.21-0.23-0.3c-0.3-0.32-3.42-3.84-5.41-9.02c5.94,1.34,13.76,6.15,18.24,11.49
				c4.49,5.34,7.95,11.56,11.33,17.6c1.34,2.4,2.73,4.88,4.19,7.28c11.24,18.78,28.74,28.72,53.51,30.43
				c3.33,0.21,6.71,0.32,10.06,0.32c10.04,0,20.12-0.99,29.81-2.91c-10.04,12.65-23.03,22.2-37.55,28.03
				c-17.11-0.97-33.37-6.8-45.32-16.28C227.69,219.1,225.84,213.66,222.4,207.23z M107.38,233.55c-6.82-13.71-8.76-28.86-5.5-42.69
				c4-16.9,13.74-26.48,28.97-28.42c1.78-0.23,3.58-0.35,5.36-0.35c11.26,0,22.34,4.49,30.99,12.72
				c11.31,10.75,23.05,26.62,35.01,47.33c0.46,0.69,11.59,17.32,21.76,11.54c0.62-0.32,2.5-1.5,3.51-4.51
				c0.35-1.09,0.53-2.29,0.58-3.61c11.28,8.56,26.06,14.04,41.74,15.54c-10.78,3.79-22.24,5.6-33.88,5.02
				c-20.49-0.97-41.83-7.77-63.41-20.23c-1.13-0.67-2.59-0.28-3.26,0.88c-0.65,1.13-0.25,2.59,0.88,3.26
				c22.25,12.83,44.31,19.86,65.56,20.88c30.57,1.46,60.21-12.23,79.31-36.63c39.8-50.78,64.65-37.62,64.98-37.44
				c0.02,0,0.05,0.02,0.07,0.05c0.23,0.12,0.49,0.21,0.74,0.25c0.19,0.05,1.57,0.42,2.27,1.92c0.09,0.19,0.16,0.39,0.23,0.65
				c-5.04,2.15-18.24,9.11-35.19,28.23c-1.23,1.39-2.47,2.84-3.75,4.35c-3.98,4.74-7.86,9.92-11.91,15.82
				c-3.95,5.83-15.7,20.49-39.08,31.29c-19.35,8.9-41.81,13.06-67.11,12.39c-13.43-0.32-27.66-2.03-42.64-5.06
				c-0.46-0.09-44.42-9.41-72.1-25.97C110.04,238.45,108.63,236.07,107.38,233.55z M195.97,288.86
				c-30.06-6.06-63.73-18.73-82.44-45.11c27.98,15.68,69.32,24.44,69.76,24.53c14.06,2.87,27.45,4.53,40.14,5.02
				c2.66,0.12,5.3,0.16,7.88,0.16c23.47,0,44.44-4.21,62.71-12.63c23.75-10.94,35.7-25.9,39.73-31.82c4-5.85,7.86-11.01,11.79-15.7
				c2.73-3.26,5.39-6.22,7.93-8.9c14.17-14.82,25.3-20.9,30.01-23.03c0,0.14,0,0.3-0.02,0.46c-0.07,2.2-0.97,5.55-3.84,10.64
				c-5.11,9.06-8.86,17.6-11.47,26.13c-1.46,4.74-2.71,9.5-3.7,14.15c-3.68,17.23-12,32.21-24.07,43.29
				c-17.57,16.14-40.44,22.89-67.96,20.03c-9.32-0.97-19.19-1.62-29.34-1.92C231.67,293.81,214.51,292.58,195.97,288.86z
				 M254.63,299.45v62.18c-3.56,2.84-7.49,0.95-9.23-0.16v-62.43C248.51,299.15,251.58,299.29,254.63,299.45z M193.91,354.86
				c11.28-6.08,27.84-10.38,46.71-11.52v19.33c0,0.72,0.32,1.39,0.86,1.85c1.9,1.55,5.32,3.38,9.09,3.38c2.68,0,5.55-0.93,8.14-3.54
				c0.46-0.44,0.72-1.04,0.72-1.69v-2.66c2.68,0.58,5.27,1.06,7.77,1.53c12.16,2.27,21.78,4.07,33.32,13.57
				c0.46,0.37,0.88,0.76,1.29,1.13c-16.76,8.88-48.24,9.8-62.92,9.69c-7.42-0.05-14.54-0.9-21.14-2.57
				c-12.95-3.24-21-8.46-23.91-15.54C191.71,362.69,192.85,357.72,193.91,354.86z M250.63,404.02c-39.1,0-72.15-13.97-72.15-30.5
				c0-6.43,4.95-12.46,13.34-17.48c-0.9,3.19-1.41,7.68,0.53,12.39c3.12,7.56,11.54,13.11,25.02,16.49
				c6.71,1.69,13.94,2.57,21.5,2.61h2.06c15.65,0,45.72-1.25,62.09-10.17c4.44,4.3,6.8,8.53,8.67,12.16
				C298.24,398.58,275.49,404.02,250.63,404.02z M313.02,388.59c-1.87-3.58-4.21-7.77-8.56-12.05c2.96-1.8,5.39-3.86,7.1-6.27
				c2.31-3.24,3.19-6.91,2.68-10.96c5.43,4.28,8.53,9.13,8.53,14.2C322.78,380.01,317.67,385.22,313.02,388.59z"/>
			<path class="st1" d="M441.17,106.51c-43.33-58.13-112.61-95.85-190.54-95.85c-130.97,0-237.53,106.55-237.53,237.55
				c0,66.11,27.15,125.98,70.87,169.08c42.89,42.32,101.79,68.45,166.65,68.45c130.97,0,237.53-106.55,237.53-237.53
				C488.16,195.14,470.68,146.09,441.17,106.51z M250.63,479.17c-64.19,0-122.37-26.31-164.25-68.75
				c-12.56-12.67-23.63-26.8-32.97-42.11c-1.16-1.87-2.27-3.77-3.38-5.67c-19.33-33.76-30.38-72.84-30.38-114.44
				c0-127.37,103.62-230.98,230.98-230.98c76.98,0,145.31,37.85,187.28,95.94c27.49,38.02,43.7,84.66,43.7,135.04
				c0,41.6-11.05,80.68-30.38,114.44c-1.11,1.9-2.22,3.79-3.38,5.67C407.25,434.75,334.04,479.17,250.63,479.17z"/>
		</g>
		<g>
		</g>
	</g>
</g>
</svg>
